<svg xmlns="http://www.w3.org/2000/svg" viewBox="0 0 900 600"><rect width="900" height="600" fill="#f8f9fa" rx="10" ry="10"/><text x="450" y="40" fill="#333" font-family="Arial" font-size="24" font-weight="bold" text-anchor="middle">Hindi-English Code-Switching Model Workflow</text><rect width="300" height="440" x="50" y="80" fill="#e6f7ff" stroke="#1890ff" stroke-width="2" rx="10" ry="10"/><text x="200" y="110" fill="#1890ff" font-family="Arial" font-size="18" font-weight="bold" text-anchor="middle">Training Process</text><rect width="240" height="60" x="80" y="130" fill="#fff" stroke="#1890ff" stroke-width="2" rx="8" ry="8"/><text x="200" y="168" fill="#333" font-family="Arial" font-size="14" text-anchor="middle">Data Collection &amp; Preparation</text><rect width="200" height="80" x="100" y="200" fill="#fff" stroke="#1890ff" stroke-width="1" rx="5" ry="5"/><text x="200" y="220" fill="#666" font-family="Arial" font-size="12" text-anchor="middle">Code-switched conversations</text><text x="200" y="242" fill="#666" font-family="Arial" font-size="12" text-anchor="middle">Age groups: Teen, Adult, Senior</text><text x="200" y="264" fill="#666" font-family="Arial" font-size="12" text-anchor="middle">Regions: North, South, West</text><rect width="240" height="60" x="80" y="290" fill="#fff" stroke="#1890ff" stroke-width="2" rx="8" ry="8"/><text x="200" y="328" fill="#333" font-family="Arial" font-size="14" text-anchor="middle">Fine-tuning XLM-RoBERTa</text><rect width="200" height="100" x="100" y="360" fill="#fff" stroke="#1890ff" stroke-width="1" rx="5" ry="5"/><text x="200" y="380" fill="#666" font-family="Arial" font-size="12" text-anchor="middle">Task: Masked Language Modeling</text><text x="200" y="402" fill="#666" font-family="Arial" font-size="12" text-anchor="middle">Epochs: 5</text><text x="200" y="424" fill="#666" font-family="Arial" font-size="12" text-anchor="middle">Learning rate: 2e-5</text><text x="200" y="446" fill="#666" font-family="Arial" font-size="12" text-anchor="middle">MLM probability: 15%</text><rect width="240" height="40" x="80" y="470" fill="#fff" stroke="#1890ff" stroke-width="2" rx="8" ry="8"/><text x="200" y="494" fill="#333" font-family="Arial" font-size="14" text-anchor="middle">HuggingFace Deployment</text><rect width="300" height="440" x="550" y="80" fill="#f6ffed" stroke="#52c41a" stroke-width="2" rx="10" ry="10"/><text x="700" y="110" fill="#52c41a" font-family="Arial" font-size="18" font-weight="bold" text-anchor="middle">Inference Process</text><rect width="240" height="60" x="580" y="130" fill="#fff" stroke="#52c41a" stroke-width="2" rx="8" ry="8"/><text x="700" y="168" fill="#333" font-family="Arial" font-size="14" text-anchor="middle">Input Masked Sentence</text><rect width="200" height="40" x="600" y="200" fill="#fff" stroke="#52c41a" stroke-width="1" rx="5" ry="5"/><text x="700" y="224" fill="#666" font-family="Arial" font-size="12" text-anchor="middle">&quot;&lt;mask&gt;, kya scene hai?&quot;</text><rect width="240" height="60" x="580" y="250" fill="#fff" stroke="#52c41a" stroke-width="2" rx="8" ry="8"/><text x="700" y="288" fill="#333" font-family="Arial" font-size="14" text-anchor="middle">Code-Switch Model Prediction</text><rect width="200" height="80" x="600" y="320" fill="#fff" stroke="#52c41a" stroke-width="1" rx="5" ry="5"/><text x="700" y="340" fill="#666" font-family="Arial" font-size="12" text-anchor="middle">&quot;Bhai&quot; (0.1594)</text><text x="700" y="362" fill="#666" font-family="Arial" font-size="12" text-anchor="middle">&quot;Hello&quot; (0.1397)</text><text x="700" y="384" fill="#666" font-family="Arial" font-size="12" text-anchor="middle">&quot;Hi&quot; (0.1270)</text><rect width="240" height="60" x="580" y="410" fill="#fff" stroke="#52c41a" stroke-width="2" rx="8" ry="8"/><text x="700" y="448" fill="#333" font-family="Arial" font-size="14" text-anchor="middle">Zero-Shot Demographic Analysis</text><rect width="200" height="40" x="600" y="480" fill="#fff" stroke="#52c41a" stroke-width="1" rx="5" ry="5"/><text x="700" y="504" fill="#666" font-family="Arial" font-size="12" text-anchor="middle">Age &amp; Region Classification</text><path fill="none" stroke="#1890ff" stroke-width="2" d="M 200 190 L 200 200"/><path fill="none" stroke="#1890ff" stroke-width="2" d="M 200 280 L 200 290"/><path fill="none" stroke="#1890ff" stroke-width="2" d="M 200 350 L 200 360"/><path fill="none" stroke="#1890ff" stroke-width="2" d="M 200 460 L 200 470"/><path fill="none" stroke="#52c41a" stroke-width="2" d="M 700 190 L 700 200"/><path fill="none" stroke="#52c41a" stroke-width="2" d="M 700 240 L 700 250"/><path fill="none" stroke="#52c41a" stroke-width="2" d="M 700 310 L 700 320"/><path fill="none" stroke="#52c41a" stroke-width="2" d="M 700 400 L 700 410"/><path fill="none" stroke="#52c41a" stroke-width="2" d="M 700 470 L 700 480"/><path fill="none" stroke="#333" stroke-width="3" marker-end="url(#arrowhead)" d="M 350 300 L 550 300"/><defs><marker id="arrowhead" markerHeight="7" markerWidth="10" orient="auto" refX="10" refY="3.5"><polygon fill="#333" points="0 0 10 3.5 0 7"/></marker></defs><rect width="100" height="60" x="400" y="270" fill="#fff" stroke="#333" stroke-width="1" rx="5" ry="5"/><text x="450" y="300" fill="#333" font-family="Arial" font-size="12" text-anchor="middle">Trained</text><text x="450" y="318" fill="#333" font-family="Arial" font-size="12" text-anchor="middle">Model</text></svg>